<svg width="15" height="18" viewBox="0 0 15 18" fill="none" xmlns="http://www.w3.org/2000/svg">
<path fill-rule="evenodd" clip-rule="evenodd" d="M3.19766 0.731445C3.39866 1.31945 3.60666 1.91745 3.81466 2.50545C4.11866 3.38745 4.30866 4.05145 4.39466 4.51645V7.08745H5.34266V4.51645L6.49066 0.731445H5.52266L4.87766 3.22645L4.20466 0.731445H3.19766ZM7.76166 7.15345C8.19866 7.15345 8.53066 6.99245 8.76766 6.66945C8.94866 6.43245 9.03266 6.05245 9.03266 5.54945V3.88945C9.03266 3.38645 8.94866 3.01645 8.76766 2.77945C8.52966 2.45845 8.19766 2.29645 7.76166 2.29645C7.33366 2.29645 7.00166 2.45745 6.76666 2.77945C6.58566 3.01745 6.50066 3.38745 6.50066 3.89045V5.55045C6.50066 6.05345 6.58566 6.42345 6.76666 6.67045C7.00166 6.99245 7.33366 7.15345 7.76166 7.15345ZM7.35366 3.71945C7.35366 3.28345 7.48666 3.06545 7.76166 3.06545C8.04666 3.06545 8.16966 3.28345 8.16966 3.71945V5.71145C8.16966 6.14845 8.04666 6.37545 7.76166 6.37545C7.48666 6.37545 7.35366 6.14745 7.35366 5.71145V3.71945ZM9.73566 6.09144C9.73566 6.43245 9.76266 6.65945 9.81066 6.80245C9.89566 7.04045 10.0947 7.15345 10.3697 7.15345C10.6847 7.15345 11.0067 6.96345 11.3477 6.56544V7.08745H12.2107V2.35345H11.3477V5.96745C11.1577 6.24245 10.9777 6.37545 10.8077 6.37545C10.6937 6.37545 10.6277 6.30045 10.6087 6.16745C10.5987 6.14745 10.5987 6.03445 10.5987 5.83444V2.35345H9.73566V6.09144ZM13.0937 12.5424V12.9784H12.2397V12.5424C12.2397 12.1154 12.3827 11.8964 12.6667 11.8964C12.9507 11.8974 13.0937 12.1154 13.0937 12.5424ZM14.7437 9.51645C14.5727 8.76645 13.9557 8.21645 13.2257 8.13145C11.4797 7.94145 9.71466 7.94145 7.95966 7.94145C6.20466 7.94145 4.43966 7.94145 2.70366 8.13145C1.96566 8.21645 1.35766 8.76645 1.17766 9.51645C0.940664 10.5784 0.930664 11.7364 0.930664 12.8364C0.930664 13.9274 0.930664 15.0934 1.17766 16.1564C1.34866 16.9064 1.96566 17.4564 2.69566 17.5324C4.44066 17.7314 6.20566 17.7314 7.96066 17.7314C9.71566 17.7314 11.4807 17.7314 13.2267 17.5324C13.9557 17.4564 14.5637 16.9064 14.7447 16.1564C14.9817 15.0944 14.9917 13.9274 14.9917 12.8364L14.9917 12.8224V12.8224C14.9907 11.7266 14.9896 10.5739 14.7437 9.51645ZM3.92966 10.4744H4.94366V9.58245H1.98366V10.4744H2.98066V15.8724H3.92966V10.4744ZM7.50566 15.8724H6.66066V15.3604C6.31866 15.7494 5.99666 15.9394 5.69266 15.9394C5.41866 15.9394 5.21866 15.8254 5.14266 15.5884C5.09466 15.4464 5.06666 15.2274 5.06666 14.8964V11.1874H5.91166V14.6404C5.91166 14.8404 5.91166 14.9444 5.92066 14.9734C5.94066 15.1054 6.00666 15.1724 6.11966 15.1724C6.29166 15.1724 6.47166 15.0404 6.66066 14.7744V11.1884H7.50566V15.8724ZM10.6457 15.4164C10.7117 15.2174 10.7317 14.9054 10.7317 14.4684V12.5994C10.7317 12.1624 10.7117 11.8504 10.6457 11.6604C10.5417 11.3094 10.3037 11.1294 9.97166 11.1294C9.65866 11.1294 9.36366 11.2994 9.08866 11.6414V9.58245H8.24566V15.8724H9.08866V15.4164C9.37366 15.7674 9.66866 15.9384 9.97166 15.9384C10.3037 15.9384 10.5417 15.7584 10.6457 15.4164ZM13.9377 13.6904H12.2397V14.5154C12.2397 14.9524 12.3827 15.1694 12.6767 15.1694C12.8857 15.1694 13.0087 15.0564 13.0567 14.8284C13.0657 14.7814 13.0757 14.5914 13.0757 14.2494H13.9387V14.3734C13.9387 14.6484 13.9387 14.8384 13.9197 14.9234C13.8997 15.1124 13.8237 15.2834 13.7207 15.4354C13.4917 15.7674 13.1417 15.9384 12.6967 15.9384C12.2507 15.9384 11.9177 15.7774 11.6717 15.4544C11.4917 15.2264 11.3967 14.8564 11.3967 14.3534V12.7124C11.3967 12.2094 11.4827 11.8494 11.6627 11.6114C11.9097 11.2884 12.2417 11.1274 12.6787 11.1274C13.1067 11.1274 13.4377 11.2884 13.6837 11.6114C13.8557 11.8484 13.9407 12.2084 13.9407 12.7124V13.6904H13.9377ZM9.88666 14.5344V12.5324C9.88666 12.1154 9.76266 11.8974 9.51666 11.8974C9.37366 11.8974 9.23166 11.9634 9.08866 12.1064V14.9614C9.23166 15.1034 9.37366 15.1694 9.51666 15.1694C9.76266 15.1694 9.88666 14.9614 9.88666 14.5344Z" fill="#0A142F"/>
</svg>
